# AST/ASF file generated using VICON BodyLanguage
# -----------------------------------------------
:version 1.10
:name VICON
:units
  mass 1.0
  length 0.45
  angle deg
:documentation
   .ast/.asf automatically generated from VICON data using
   VICON BodyBuilder and BodyLanguage model FoxedUp or BRILLIANT.MOD
:root
   order TX TY TZ RX RY RZ
   axis XYZ
   position 0 0 0  
   orientation 0 0 0 
:bonedata
  begin
     id 1 
     name lhipjoint
     direction 0.573633 -0.743009 0.344793 
     length 2.46257 
     axis 0 0 0  XYZ
  end
  begin
     id 2 
     name lfemur
     direction 0.34202 -0.939693 0  
     length 7.3842  
     axis 0 0 20  XYZ
    dof rx ry rz
    limits (-160.0 20.0)
           (-70.0 70.0)
           (-60.0 70.0)
  end
  begin
     id 3 
     name ltibia
     direction 0.34202 -0.939693 0   
     length 7.50407   
     axis 0 0 20   XYZ
    dof rx
    limits (-10.0 170.0)
  end
  begin
     id 4 
     name lfoot
     direction 0.110749 -0.304281 0.946123   
     length 1.95925   
     axis -90 7.62852e-016 20   XYZ
    dof rx rz
    limits (-45.0 90.0)
           (-70.0 20.0)
  end
  begin
     id 5 
     name ltoes
     direction 1.53554e-011 -4.21843e-011 1   
     length 0.978318   
     axis -90 7.62852e-016 20   XYZ
    dof rx
    limits (-90.0 20.0)
  end
  begin
     id 6 
     name rhipjoint
     direction -0.488109 -0.791693 0.367385   
     length 2.31113  
     axis 0 0 0  XYZ 
  end
  begin
     id 7 
     name rfemur
     direction -0.34202 -0.939693 0   
     length 7.40965   
     axis 0 0 -20   XYZ
    dof rx ry rz
    limits (-160.0 20.0)
           (-70.0 70.0)
           (-70.0 60.0)
  end
  begin
     id 8 
     name rtibia
     direction -0.34202 -0.939693 0   
     length 7.55548   
     axis 0 0 -20   XYZ
    dof rx
    limits (-10.0 170.0)
 end
 begin
     id 9 
     name rfoot
     direction -0.127594 -0.350561 0.927808   
     length 2.07199  
     axis -90 -7.62852e-016 -20   XYZ
    dof rx rz
    limits (-45.0 90.0)
           (-20.0 70.0)
  end
  begin
     id 10 
     name rtoes
     direction -1.53542e-011 -4.21909e-011 1   
     length 1.02667   
     axis -90 -7.62852e-016 -20   XYZ
    dof rx
    limits (-90.0 20.0)
  end
  begin
     id 11 
     name lowerback
     direction -0.0103342 0.997298 -0.0727278   
     length 2.02836   
     axis 0 0 0   XYZ
    dof rx ry rz
    limits (-20.0 45.0)
           (-30.0 30.0)
           (-30.0 30.0)
  end
  begin
     id 12 
     name upperback
     direction 0.0171146 0.999786 -0.011606   
     length 2.03179   
     axis 0 0 0   XYZ
    dof rx ry rz
    limits (-20.0 45.0)
           (-30.0 30.0)
           (-30.0 30.0)
  end
  begin
     id 13 
     name thorax
     direction 0.0216927 0.999513 0.0224343   
     length 2.03882   
     axis 0 0 0   XYZ
    dof rx ry rz
    limits (-20.0 45.0)
           (-30.0 30.0)
           (-30.0 30.0)
  end
  begin
     id 14 
     name lowerneck
     direction 0.000989287 0.993907 0.110221   
     length 1.75428   
     axis 0 0 0   XYZ
    dof rx ry rz
    limits (-20.0 45.0)
           (-30.0 30.0)
           (-30.0 30.0)
  end
  begin
     id 15 
     name upperneck
     direction -0.0172474 0.994813 -0.100253   
     length 1.77058   
     axis 0 0 0   XYZ
    dof rx ry rz
    limits (-20.0 45.0)
           (-30.0 30.0)
           (-30.0 30.0)
  end
  begin
     id 16
     name head
     direction -0.00486455 0.99894 -0.0457663  
     length 1.77427  
     axis 0 0 0   XYZ
    dof rx ry rz
    limits (-20.0 45.0)
           (-30.0 30.0)
           (-30.0 30.0)
  end
  begin
     id 17 
     name lclavicle
     direction 0.927314 0.333734 -0.169441  
     length 3.97584  
     axis 0 0 0   XYZ
    dof ry rz
    limits (-20.0 10.0)
           (0.0 20.0)
  end
  begin
     id 18 
     name lhumerus
     direction 1 -4.48965e-011 -3.25313e-028   
     length 4.76468   
     axis 180 -30 -90   XYZ
    dof rx ry rz
    limits (-60.0 90.0)
           (-90.0 90.0)
           (-90.0 90.0)
  end
  begin
     id 19
     name lradius
     direction 1 -4.48969e-011 -2.8465e-028   
     length 3.52712   
     axis -180 -30 -90   XYZ
    dof rx
    limits (-10.0 170.0)
  end
  begin
     id 20
     name lwrist
     direction 1 -4.4896e-011 -7.78665e-028   
     length 1.76356   
     axis 1.91374e-015 90 90   XYZ
    dof ry
    limits (-180.0 0.0)
 end
  begin
     id 21 
     name lhand
     direction 1 -4.48959e-011 -1.55733e-027   
     length 0.859564   
     axis 9.9371e-016 90 90   XYZ
    dof rx rz
    limits (-90.0 90.0)
           (-45.0 45.0)
  end
  begin
     id 22 
     name lfingers
     direction 1 -4.48965e-011 -3.11466e-027   
     length 0.693002   
     axis 1.98742e-015 90 90   XYZ
    dof rx
    limits (0.0 90.0)
  end
  begin
     id 23
     name lthumb
     direction 0.707107 -6.34948e-011 0.707107   
     length 0.995017   
     axis -90 45 2.85299e-015   XYZ
    dof rx rz
    limits (-45.0 45.0)
           (-45.0 45.0)
  end
  begin
     id 24 
     name rclavicle
     direction -0.899388 0.348209 -0.264294   
     length 3.68366  
     axis 0 0 0   XYZ 
    dof ry rz
    limits (-10.0 20.0)
           (-20.0 0.0)
  end
  begin
     id 25 
     name rhumerus
     direction -1 -4.48965e-011 -3.01536e-027  
     length 4.90577   
     axis 180 30 90   XYZ
    dof rx ry rz
    limits (-90.0 60.0)
           (-90.0 90.0)
           (-90.0 90.0)
  end
  begin
     id 26 
     name rradius
     direction -1 -4.48966e-011 3.93291e-027   
     length 3.42692   
     axis -180 30 90   XYZ
    dof rx
    limits (-10.0 170.0)
  end
  begin
     id 27 
     name rwrist
     direction -1 -4.48969e-011 -7.78665e-028   
     length 1.71346   
     axis 1.91374e-015 -90 -90   XYZ
    dof ry
    limits (-180.0 0.0)
  end
  begin
     id 28
     name rhand
     direction -1 -4.48967e-011 -1.55733e-027   
     length 0.740957   
     axis 9.9371e-016 -90 -90   XYZ
    dof rx rz
    limits (-90.0 90.0)
           (-45.0 45.0)
  end
  begin
     id 29
     name rfingers
     direction -1 -4.48949e-011 -3.11466e-027   
     length 0.597378   
     axis 1.98742e-015 -90 -90   XYZ
    dof rx
    limits (0.0 90.0)
  end
  begin
     id 30
     name rthumb
     direction -0.707107 -6.34931e-011 0.707107   
     length 0.857719   
     axis -90 -45 -2.85299e-015   XYZ
    dof rx rz
    limits (-45.0 45.0)
           (-45.0 45.0)
  end
:hierarchy
  begin
    root lhipjoint rhipjoint lowerback
    lhipjoint lfemur
    lfemur ltibia
    ltibia lfoot
    lfoot ltoes
    rhipjoint rfemur
    rfemur rtibia
    rtibia rfoot
    rfoot rtoes
    lowerback upperback
    upperback thorax
    thorax lowerneck lclavicle rclavicle
    lowerneck upperneck
    upperneck head
    lclavicle lhumerus
    lhumerus lradius
    lradius lwrist
    lwrist lhand lthumb
    lhand lfingers
    rclavicle rhumerus
    rhumerus rradius
    rradius rwrist
    rwrist rhand rthumb
    rhand rfingers
  end

#!OML:ASF E:\I on waltz\AllaLogoMonkeySwing\Project 1\Capture day 1\Session 1\Subject1.ASF
:FULLY-SPECIFIED
:DEGREES
140
root 0.565786 17.9346 -3.14032 3.33068 -4.41119 -0.779397
lowerback 2.5774 -1.40608 -3.34939
upperback -1.6964 -1.95927 1.80476
thorax -3.01884 -0.887429 3.84132
lowerneck -12.4651 -1.62494 -3.01833
upperneck 17.2335 -1.81585 0.987633
head 7.38583 -0.979732 0.639196
rclavicle 9.3025e-015 5.56597e-015
rhumerus -37.1503 -33.8906 -66.6761
rradius 23.9827
rwrist 6.50994
rhand -2.48398 -35.7498
rfingers 7.12502
rthumb 23.2091 -64.3714
lclavicle 9.3025e-015 5.56597e-015
lhumerus -39.3075 22.6011 79.456
lradius 35.3027
lwrist -5.31647
lhand -5.85188 -6.83039
lfingers 7.12502
lthumb 19.9747 22.163
rfemur -0.7966 1.8563 18.7667
rtibia 14.0794
rfoot -13.6898 -9.03014
rtoes 10.0713
lfemur 4.33838 2.52517 -17.443
ltibia 7.50224
lfoot -13.2122 5.66232
ltoes -28.8749
141
root 0.569948 17.9339 -3.14317 3.35818 -4.4247 -0.915817
lowerback 2.66821 -1.36509 -3.09883
upperback -1.6492 -1.89602 1.82752
thorax -3.03358 -0.861263 3.72258
lowerneck -12.6961 -1.27098 -2.73458
upperneck 17.3961 -1.34326 0.791882
head 7.4662 -0.753337 0.574752
rclavicle -3.02525e-015 2.52457e-014
rhumerus -37.3277 -33.9225 -66.4204
rradius 23.9733
rwrist 6.51258
rhand -2.66599 -35.7463
rfingers 7.12502
rthumb 23.0345 -64.3897
lclavicle -3.02525e-015 2.52457e-014
lhumerus -39.3572 22.4862 79.4381
lradius 35.3028
lwrist -5.24366
lhand -5.89004 -6.7133
lfingers 7.12502
lthumb 19.9381 22.2839
rfemur -0.837837 1.94842 18.9423
rtibia 14.1038
rfoot -13.6762 -9.12493
rtoes 10.0392
lfemur 4.28914 2.59481 -17.2785
ltibia 7.54294
lfoot -13.1811 5.6454
ltoes -29.0231
142
root 0.574715 17.9335 -3.14769 3.37731 -4.47041 -0.887728
lowerback 2.76551 -1.30928 -3.02776
upperback -1.59543 -1.82119 1.81272
thorax -3.0418 -0.826133 3.66551
lowerneck -12.7683 -0.966835 -2.53306
upperneck 17.3471 -0.946979 0.701348
head 7.45379 -0.558443 0.551839
rclavicle 3.33275e-015 -7.7526e-015
rhumerus -37.492 -34.0176 -66.1114
rradius 23.9199
rwrist 6.55618
rhand -2.61317 -35.5993
rfingers 7.12502
rthumb 23.0852 -64.2364
lclavicle 3.33275e-015 -7.7526e-015
lhumerus -39.4008 22.465 79.3993
lradius 35.2766
lwrist -5.34531
lhand -5.96233 -6.68636
lfingers 7.12502
lthumb 19.8686 22.318
rfemur -0.91654 1.98392 18.8967
rtibia 14.1714
rfoot -13.6738 -9.18091
rtoes 9.85421
lfemur 4.22104 2.68208 -17.3185
ltibia 7.60215
lfoot -13.163 5.63023
ltoes -29.1553
143
root 0.578774 17.9326 -3.15275 3.39455 -4.53964 -0.743487
lowerback 2.84863 -1.2755 -3.11119
upperback -1.53833 -1.78256 1.77205
thorax -3.03183 -0.806573 3.66986
lowerneck -12.7181 -0.642624 -2.37364
upperneck 17.1569 -0.544208 0.746901
head 7.37497 -0.349943 0.581041
rclavicle -1.49958e-014 1.11319e-014
rhumerus -37.5882 -33.9455 -65.975
rradius 23.9188
rwrist 6.49058
rhand -2.59692 -35.5316
rfingers 7.12502
rthumb 23.1008 -64.1668
lclavicle -1.49958e-014 1.11319e-014
lhumerus -39.4961 22.4043 79.3551
lradius 35.3177
lwrist -5.31251
lhand -6.10463 -6.73127
lfingers 7.12502
lthumb 19.7318 22.2872
rfemur -1.02109 1.99095 18.698
rtibia 14.263
rfoot -13.6847 -9.10408
rtoes 9.70585
lfemur 4.13584 2.7811 -17.4931
ltibia 7.67198
lfoot -13.2152 5.58946
ltoes -28.7486
144
root 0.582513 17.932 -3.15776 3.45799 -4.59623 -0.715218
lowerback 2.91659 -1.23395 -3.06902
upperback -1.4863 -1.72686 1.76956
thorax -3.02233 -0.780625 3.64172
lowerneck -12.7433 -0.353756 -2.2526
upperneck 17.0152 -0.178571 0.784076
head 7.32665 -0.162588 0.609518
rclavicle -8.1626e-015 1.64991e-014
rhumerus -37.6353 -33.5329 -66.0371
rradius 24.0529
rwrist 6.05835
rhand -2.6266 -35.5438
rfingers 7.12502
rthumb 23.0723 -64.1825
lclavicle -8.1626e-015 1.64991e-014
lhumerus -39.555 22.3407 79.3486
lradius 35.3048
lwrist -5.21812
lhand -6.19048 -6.69346
lfingers 7.12502
lthumb 19.6492 22.3335
rfemur -1.15907 2.00512 18.6424
rtibia 14.3373
rfoot -13.691 -9.01734
rtoes 9.67819
lfemur 4.02457 2.82725 -17.5434
ltibia 7.68944
lfoot -13.2332 5.60025
ltoes -28.4026
145
root 0.586953 17.9323 -3.16263 3.51716 -4.65435 -0.671859
lowerback 2.9999 -1.16768 -3.01134
upperback -1.42173 -1.63817 1.75285
thorax -3.012 -0.738833 3.58852
lowerneck -12.8512 -0.156259 -2.16316
upperneck 16.979 0.0835505 0.749463
head 7.32959 -0.0339835 0.609641
rclavicle 2.26863e-014 -1.43125e-014
rhumerus -37.7677 -33.325 -65.9643
rradius 24.2261
rwrist 5.70546
rhand -2.6179 -35.5029
rfingers 7.12502
rthumb 23.0806 -64.1406
lclavicle 2.26863e-014 -1.43125e-014
lhumerus -39.5383 22.2934 79.3613
lradius 35.188
lwrist -5.24675
lhand -6.13048 -6.76822
lfingers 7.12502
lthumb 19.7069 22.2528
rfemur -1.28551 2.01947 18.5668
rtibia 14.3974
rfoot -13.7063 -9.0066
rtoes 9.72543
lfemur 3.92571 2.8114 -17.6385
ltibia 7.71621
lfoot -13.1903 5.6879
ltoes -28.4254
146
root 0.591386 17.9324 -3.16781 3.52098 -4.72597 -0.486106
lowerback 3.15108 -1.12019 -3.1109
upperback -1.3449 -1.58426 1.69559
thorax -3.02141 -0.711397 3.58527
lowerneck -12.9431 0.0351162 -2.03766
upperneck 16.9576 0.340106 0.656023
head 7.3352 0.0885996 0.584219
rclavicle -1.4474e-015 -1.03368e-014
rhumerus -38.0518 -33.828 -65.5128
rradius 24.3019
rwrist 6.11875
rhand -2.48904 -35.4595
rfingers 7.12502
rthumb 23.2043 -64.0817
lclavicle -1.4474e-015 -1.03368e-014
lhumerus -39.5989 22.2486 79.3418
lradius 35.1539
lwrist -5.32604
lhand -6.05478 -6.87997
lfingers 7.12502
lthumb 19.7797 22.1336
rfemur -1.35657 2.05342 18.3193
rtibia 14.4435
rfoot -13.7035 -9.00111
rtoes 9.89361
lfemur 3.86702 2.82666 -17.8984
ltibia 7.79003
lfoot -13.1706 5.73311
ltoes -28.3464
147
root 0.596667 17.9321 -3.17401 3.51687 -4.78479 -0.422748
lowerback 3.35882 -1.07866 -3.06489
upperback -1.26579 -1.53277 1.66096
thorax -3.06306 -0.687189 3.52477
lowerneck -13.045 0.2125 -1.83465
upperneck 16.9005 0.572615 0.501561
head 7.33223 0.199157 0.523708
rclavicle 1.36913e-014 3.97569e-016
rhumerus -38.3188 -34.2815 -65.1105
rradius 24.3687
rwrist 6.54829
rhand -2.30848 -35.6024
rfingers 7.12502
rthumb 23.3775 -64.2026
lclavicle 1.36913e-014 3.97569e-016
lhumerus -39.6943 22.1601 79.3192
lradius 35.202
lwrist -5.37503
lhand -6.02278 -6.77093
lfingers 7.12502
lthumb 19.8105 22.2395
rfemur -1.42181 2.00009 18.1978
rtibia 14.5034
rfoot -13.7084 -8.91087
rtoes 9.81705
lfemur 3.81418 2.90008 -17.9998
ltibia 7.85806
lfoot -13.2092 5.74639
ltoes -28.6221
148
root 0.602957 17.9332 -3.18135 3.54731 -4.84992 -0.515432
lowerback 3.5598 -1.03678 -2.85071
upperback -1.20503 -1.47102 1.67467
thorax -3.12324 -0.660087 3.41886
lowerneck -13.0857 0.364164 -1.61682
upperneck 16.818 0.774796 0.294396
head 7.31178 0.291322 0.440343
rclavicle 7.71533e-015 -2.18663e-014
rhumerus -38.4327 -34.24 -64.9493
rradius 24.4194
rwrist 6.4989
rhand -2.23538 -35.7557
rfingers 7.12502
rthumb 23.4476 -64.347
lclavicle 7.71533e-015 -2.18663e-014
lhumerus -39.7594 22.1655 79.2535
lradius 35.1433
lwrist -5.50212
lhand -5.93346 -6.66074
lfingers 7.12502
lthumb 19.8963 22.3408
rfemur -1.53491 1.88181 18.2473
rtibia 14.5862
rfoot -13.7194 -8.73363
rtoes 9.61748
lfemur 3.72575 2.97232 -17.912
ltibia 7.92233
lfoot -13.2444 5.78971
ltoes -28.9065
149
root 0.607974 17.9349 -3.18955 3.60114 -4.94749 -0.599471
lowerback 3.73905 -1.01146 -2.70795
upperback -1.14768 -1.43257 1.72479
thorax -3.17004 -0.643099 3.39163
lowerneck -13.0798 0.531647 -1.47601
upperneck 16.6989 1.00724 0.119147
head 7.27134 0.396274 0.382842
rclavicle 1.01256e-014 -8.94531e-015
rhumerus -38.4236 -33.7741 -65.0355
rradius 24.5994
rwrist 6.05973
rhand -2.16179 -35.9253
rfingers 7.12502
rthumb 23.5182 -64.5076
lclavicle 1.01256e-014 -8.94531e-015
lhumerus -39.8241 22.3074 79.1683
lradius 34.9961
lwrist -5.6317
lhand -5.85857 -6.69317
lfingers 7.12502
lthumb 19.9683 22.3009
rfemur -1.6728 1.90276 18.3146
rtibia 14.6482
rfoot -13.7408 -8.60829
rtoes 9.43377
lfemur 3.61445 3.01181 -17.8263
ltibia 8.01978
lfoot -13.2797 5.83811
ltoes -28.4474
150
root 0.6128 17.936 -3.19754 3.66866 -5.03391 -0.589586
lowerback 3.88925 -0.986359 -2.66816
upperback -1.06815 -1.39921 1.75366
thorax -3.17527 -0.62793 3.39949
lowerneck -13.0937 0.680598 -1.44115
upperneck 16.5075 1.20984 0.0836564
head 7.21015 0.493758 0.385038
rclavicle 1.39895e-014 1.2921e-014
rhumerus -38.3741 -33.0097 -65.3687
rradius 24.9682
rwrist 5.22586
rhand -2.19788 -36.2143
rfingers 7.12502
rthumb 23.4836 -64.801
lclavicle 1.39895e-014 1.2921e-014
lhumerus -39.8607 22.3166 79.1928
lradius 34.9125
lwrist -5.59943
lhand -5.89569 -6.64381
lfingers 7.12502
lthumb 19.9326 22.3539
rfemur -1.82577 1.95997 18.2809
rtibia 14.7103
rfoot -13.7846 -8.56533
rtoes 9.28982
lfemur 3.47597 3.04915 -17.8615
ltibia 8.1408
lfoot -13.3215 5.86378
ltoes -28.0813
151
root 0.618192 17.9366 -3.20475 3.76157 -5.0973 -0.457198
lowerback 4.00482 -0.947007 -2.72456
upperback -0.986471 -1.35252 1.7332
thorax -3.15885 -0.605158 3.40863
lowerneck -13.4532 0.764896 -0.997163
upperneck 16.6994 1.35214 -0.518771
head 7.34273 0.532021 0.132563
rclavicle -4.16205e-015 -1.39149e-015
rhumerus -38.3231 -32.5603 -65.5344
rradius 25.1648
rwrist 4.58311
rhand -2.39712 -36.1691
rfingers 7.12502
rthumb 23.2925 -64.7801
lclavicle -4.16205e-015 -1.39149e-015
lhumerus -39.8922 22.1878 79.2781
lradius 34.903
lwrist -5.61252
lhand -5.87637 -6.6788
lfingers 7.12502
lthumb 19.9512 22.317
rfemur -2.00844 1.9393 18.0874
rtibia 14.7877
rfoot -13.779 -8.50966
rtoes 9.66124
lfemur 3.29093 3.09147 -18.057
ltibia 8.23419
lfoot -13.3042 5.88386
ltoes -28.227
152
root 0.621906 17.9369 -3.21277 3.86852 -5.17048 -0.396901
lowerback 4.12453 -0.917564 -2.73943
upperback -0.903391 -1.31625 1.73921
thorax -3.1428 -0.588179 3.42247
lowerneck -13.6761 0.86352 -0.743657
upperneck 16.748 1.4993 -0.850321
head 7.40234 0.586423 -0.00111099
rclavicle -4.67144e-015 -1.39149e-015
rhumerus -38.2472 -32.4267 -65.5179
rradius 25.2414
rwrist 4.34901
rhand -2.4176 -35.9626
rfingers 7.12502
rthumb 23.2728 -64.5761
lclavicle -4.67144e-015 -1.39149e-015
lhumerus -39.932 22.1588 79.2987
lradius 34.9192
lwrist -5.77862
lhand -5.72941 -6.73921
lfingers 7.12502
lthumb 20.0925 22.2418
rfemur -2.2057 1.93981 17.987
rtibia 14.8641
rfoot -13.7559 -8.43533
rtoes 10.0042
lfemur 3.11275 3.14499 -18.1449
ltibia 8.27042
lfoot -13.2237 5.91006
ltoes -28.2837
153
root 0.625245 17.9374 -3.22143 3.96358 -5.26794 -0.456898
lowerback 4.26149 -0.898311 -2.64472
upperback -0.80827 -1.28715 1.77434
thorax -3.12505 -0.576756 3.40524
lowerneck -13.6339 1.00501 -0.680208
upperneck 16.5151 1.67929 -0.868801
head 7.31958 0.677004 2.83393e-005
rclavicle -1.36167e-014 2.20651e-014
rhumerus -38.2555 -32.2441 -65.5564
rradius 25.5187
rwrist 4.15584
rhand -2.23012 -36.0972
rfingers 7.12502
rthumb 23.4527 -64.6879
lclavicle -1.36167e-014 2.20651e-014
lhumerus -39.9582 22.268 79.237
lradius 34.9077
lwrist -5.94795
lhand -5.62112 -6.64481
lfingers 7.12502
lthumb 20.1965 22.3253
rfemur -2.39839 1.96621 18.0393
rtibia 14.9575
rfoot -13.7541 -8.36646
rtoes 9.88726
lfemur 2.98344 3.25539 -18.0695
ltibia 8.27628
lfoot -13.1502 5.91027
ltoes -28.2237
154
root 0.630956 17.9386 -3.22873 4.05691 -5.38198 -0.424953
lowerback 4.39811 -0.863467 -2.58865
upperback -0.719866 -1.24043 1.768
thorax -3.11546 -0.555892 3.36568
lowerneck -13.5183 1.13826 -0.706688
upperneck 16.1937 1.84011 -0.753153
head 7.19314 0.76633 0.0565495
rclavicle 1.96797e-014 -2.5842e-015
rhumerus -38.3607 -32.0189 -65.5979
rradius 25.8622
rwrist 3.81902
rhand -2.22752 -36.1341
rfingers 7.12502
rthumb 23.4552 -64.7244
lclavicle 1.96797e-014 -2.5842e-015
lhumerus -39.9955 22.3216 79.1917
lradius 34.8907
lwrist -5.99441
lhand -5.59135 -6.72012
lfingers 7.12502
lthumb 20.2252 22.2469
rfemur -2.58222 1.97738 17.9698
rtibia 15.0323
rfoot -13.7397 -8.30672
rtoes 9.68002
lfemur 2.84801 3.40388 -18.1239
ltibia 8.31766
lfoot -13.173 5.88261
ltoes -28.2643
